PathFileType	4	(X/Y/Z)	/Users/itak/Documents/Research/Walk-IL/dataset/trc/00399_00012.trc
DataRate	CameraRate	NumFrames	NumMarkers	Units	OrigDataRate	OrigDataStartFrame	OrigNumFrames
100.000000	100.000000	4	53	mm	100.000000	183	732
Frame#	Time	RPSI			LPSI			L3			STRN			T10			C7			CLAV			RBAK			LBAK			LSHO			LUPA			LAEL			LAOL			LWTS			LWPS			LFRA			LIFD			LHPS			LHTS			RSHO			RUPA			RAEL			RAOL			RWTS			RWPS			RFRA			RIFD			RHTS			RHPS			RBHD			LFHD			RFHD			LBHD			LHIP			RHIP			RASI			LASI			LKNE			LTHI			LANK			LTIP			LTOE			LMT1			LMT5			LHEE			RKNE			RTHI			RANK			RTIP			RTOE			RMT1			RMT5			RHEE			
		X1	Y1	Z1	X2	Y2	Z2	X3	Y3	Z3	X4	Y4	Z4	X5	Y5	Z5	X6	Y6	Z6	X7	Y7	Z7	X8	Y8	Z8	X9	Y9	Z9	X10	Y10	Z10	X11	Y11	Z11	X12	Y12	Z12	X13	Y13	Z13	X14	Y14	Z14	X15	Y15	Z15	X16	Y16	Z16	X17	Y17	Z17	X18	Y18	Z18	X19	Y19	Z19	X20	Y20	Z20	X21	Y21	Z21	X22	Y22	Z22	X23	Y23	Z23	X24	Y24	Z24	X25	Y25	Z25	X26	Y26	Z26	X27	Y27	Z27	X28	Y28	Z28	X29	Y29	Z29	X30	Y30	Z30	X31	Y31	Z31	X32	Y32	Z32	X33	Y33	Z33	X34	Y34	Z34	X35	Y35	Z35	X36	Y36	Z36	X37	Y37	Z37	X38	Y38	Z38	X39	Y39	Z39	X40	Y40	Z40	X41	Y41	Z41	X42	Y42	Z42	X43	Y43	Z43	X44	Y44	Z44	X45	Y45	Z45	X46	Y46	Z46	X47	Y47	Z47	X48	Y48	Z48	X49	Y49	Z49	X50	Y50	Z50	X51	Y51	Z51	X52	Y52	Z52	X53	Y53	Z53	

184	1.83	1076.17822265625	970.2583618164062	814.0547485351562	956.1397094726562	946.65380859375	759.905029296875	1017.678466796875	1043.139892578125	791.9351806640625	1109.495483398438	1201.534301757812	572.625	1009.817016601562	1146.244995117188	799.81689453125	1014.936462402344	1394.879516601562	760.3230590820312	1082.68310546875	1319.686767578125	621.2575073242188	1063.676513671875	1252.475341796875	830.0549926757812	915.6373291015625	1354.989013671875	735.5878295898438	900.2845458984375	1369.817749023438	636.9661254882812	825.339599609375	1255.470092773438	650.3655395507812	802.8361206054688	1058.886474609375	658.8662109375	855.7476806640625	1045.3818359375	726.4153442382812	853.3002319335938	832.6636962890625	604.0216064453125	783.071044921875	827.98974609375	648.0463256835938	791.514404296875	953.5614624023438	656.1930541992188	839.5733032226562	653.7071533203125	629.8076782226562	789.501953125	741.0855712890625	647.160400390625	830.8013305664062	733.7543334960938	598.9675903320312	1181.983154296875	1382.381225585938	770.54345703125	1235.323974609375	1321.2431640625	806.1207885742188	1302.878784179688	1063.4208984375	811.2617797851562	1210.099487304688	1045.664794921875	798.3115844726562	1343.226318359375	852.4901123046875	678.30322265625	1385.8564453125	847.4482421875	738.986083984375	1333.481689453125	1001.980590820312	791.46484375	1361.902954101562	683.585693359375	679.4923706054688	1383.877319335938	752.7796020507812	667.4151611328125	1402.245483398438	761.01220703125	734.9175415039062	1113.5068359375	1593.457641601562	729.2000732421875	999.1837158203125	1573.541870117188	567.328125	1117.35205078125	1592.509887695312	595.2523193359375	957.6780395507812	1566.899291992188	709.4152221679688	893.8043212890625	935.7100830078125	629.9345092773438	1217.753540039062	961.3778686523438	788.9266357421875	1227.7119140625	968.3976440429688	644.754638671875	983.9783935546875	945.5838623046875	548.7963256835938	1044.930786132812	478.9517822265625	478.6752319335938	1004.577514648438	602.3378295898438	511.7298278808594	923.98291015625	147.6365966796875	759.1370849609375	975.48486328125	300.2358703613281	614.2799682617188	1055.622924804688	38.64131164550781	629.783203125	1052.14697265625	70.82239532470703	705.7562866210938	956.1209106445312	77.03532409667969	660.3853149414062	958.8096313476562	165.4504089355469	813.2871704101562	1247.681274414062	469.4710388183594	724.7299194335938	1268.49609375	736.025390625	708.5440673828125	1204.67529296875	47.48602294921875	788.6505126953125	1242.597045898438	341.7796325683594	715.6220092773438	1227.59326171875	30.12961006164551	599.8096313476562	1167.111083984375	36.22676467895508	654.009765625	1247.73095703125	34.48545455932617	717.0369873046875	1125.440673828125	34.72070693969727	830.2864379882812	
185	1.84	1081.669799804688	970.79736328125	807.4274291992188	961.1798095703125	947.3732299804688	754.6293334960938	1023.085327148438	1043.32421875	786.2611694335938	1113.155151367188	1201.693115234375	565.3646850585938	1015.994323730469	1146.889038085938	793.9446411132812	1021.212158203125	1395.329956054688	753.7459106445312	1086.934204101562	1320.03466796875	613.9249877929688	1070.970581054688	1253.174438476562	823.2156982421875	921.6400756835938	1355.474487304688	730.477783203125	904.8064575195312	1370.12353515625	632.1026000976562	829.7067260742188	1256.282592773438	647.2964477539062	807.0345458984375	1059.789428710938	658.1207275390625	860.994873046875	1046.411010742188	724.529296875	855.7299194335938	832.7479858398438	604.5119018554688	786.2913208007812	828.8058471679688	649.8010864257812	795.280029296875	954.5140991210938	656.5867919921875	842.1913452148438	654.1315307617188	632.4349975585938	792.5484008789062	741.8330688476562	649.7348022460938	832.9747924804688	733.8479614257812	600.8926391601562	1188.2236328125	1383.164306640625	761.6075439453125	1242.347900390625	1322.1845703125	796.300048828125	1311.777099609375	1064.808715820312	798.6904296875	1219.158203125	1046.573608398438	787.5109252929688	1351.1484375	855.9669189453125	661.8694458007812	1394.957763671875	850.2437133789062	721.6668701171875	1342.401489257812	1003.622192382812	777.5484619140625	1371.3154296875	687.0596923828125	660.133544921875	1392.131469726562	756.6517944335938	648.6862182617188	1411.8095703125	763.9932861328125	715.9310913085938	1119.396484375	1593.8515625	720.3302612304688	1002.929565429688	1573.396484375	560.1260375976562	1121.512817382812	1592.284545898438	586.3639526367188	963.0745849609375	1567.520263671875	702.76708984375	897.5545654296875	936.1844482421875	625.3943481445312	1223.0322265625	961.5572509765625	781.1260986328125	1232.1240234375	968.2940063476562	636.8302001953125	987.400390625	946.4033203125	543.33349609375	1049.84130859375	481.9881896972656	466.6427917480469	1008.361633300781	604.913330078125	501.8019409179688	943.220458984375	137.6820678710938	738.3240966796875	987.2494506835938	297.1523132324219	598.1361694335938	1075.370971679688	39.67215728759766	601.0450439453125	1071.79248046875	66.4315185546875	679.9796142578125	975.3483276367188	73.21932220458984	635.5322265625	978.6719360351562	153.8675384521484	792.701416015625	1249.322387695312	469.2608032226562	723.8676147460938	1271.916748046875	735.568359375	702.8897705078125	1204.650512695312	47.563720703125	788.614013671875	1243.58642578125	341.6343383789062	715.3364868164062	1227.6865234375	30.30299186706543	599.811279296875	1167.285766601562	36.50350952148438	653.9262084960938	1247.752197265625	34.4604606628418	717.0535888671875	1125.2587890625	34.84050750732422	830.1864013671875	
186	1.85	1087.110229492188	971.16552734375	800.7328491210938	966.2470092773438	947.932861328125	749.4187622070312	1028.447021484375	1043.293823242188	780.6036376953125	1116.75634765625	1201.603393554688	558.0379028320312	1022.051574707031	1147.306640625	787.9838256835938	1027.348999023438	1395.538330078125	747.0723876953125	1091.11669921875	1320.105712890625	606.55908203125	1078.13427734375	1253.6435546875	816.3421630859375	927.5242919921875	1355.7216796875	725.2402954101562	909.2782592773438	1370.187622070312	627.1282348632812	834.0833740234375	1256.8134765625	644.0781860351562	811.3006591796875	1060.443237304688	657.1455078125	866.2610473632812	1047.235595703125	722.468505859375	858.3158569335938	832.6468505859375	604.7405395507812	789.65283203125	829.4031982421875	651.2120361328125	799.1441650390625	955.1976318359375	656.7061157226562	845.0226440429688	654.3705444335938	634.7005615234375	795.7720336914062	742.3798828125	651.9403686523438	835.3462524414062	733.7714233398438	602.5084228515625	1194.3154296875	1383.6806640625	752.6653442382812	1249.139282226562	1322.818115234375	786.5219116210938	1320.4052734375	1065.922485351562	786.2398071289062	1227.984375	1047.191284179688	776.7099609375	1358.85693359375	859.386962890625	645.4663696289062	1403.765991210938	852.9137573242188	704.3934326171875	1351.047119140625	1005.024963378906	763.745361328125	1380.546752929688	690.54931640625	640.4791870117188	1400.180053710938	760.5557861328125	629.865478515625	1421.049560546875	766.887939453125	696.8579711914062	1125.146240234375	1594.037231445312	711.4400024414062	1006.569519042969	1573.026733398438	552.928466796875	1125.543701171875	1591.849975585938	577.471923828125	968.2833862304688	1567.913330078125	696.0751953125	901.3366088867188	936.4237670898438	620.822509765625	1228.245849609375	961.534423828125	773.2479858398438	1236.439208984375	967.9986572265625	628.8646850585938	990.7581787109375	946.9292602539062	537.7908325195312	1054.309692382812	484.5195617675781	454.9650573730469	1011.7373046875	607.16064453125	492.1589965820312	962.6882934570312	127.317756652832	716.6351928710938	998.8572998046875	293.4467468261719	581.6621704101562	1094.797241210938	40.78503036499023	571.8609008789062	1091.456420898438	62.33203506469727	653.3699951171875	994.4797973632812	69.16922760009766	610.1119384765625	998.9047241210938	141.9262390136719	771.1083374023438	1250.978149414062	469.0603332519531	723.036376953125	1275.259033203125	734.953369140625	697.3885498046875	1204.623168945312	47.62070465087891	788.5848388671875	1244.586181640625	341.4930114746094	715.0843505859375	1227.793334960938	30.51530265808105	599.810302734375	1167.487548828125	36.82332229614258	653.8449096679688	1247.7783203125	34.42767715454102	717.07373046875	1125.067749023438	35.0140495300293	830.1066284179688	
187	1.86	1092.507934570312	971.3538208007812	793.9669189453125	971.3359985351562	948.2836303710938	744.2373046875	1033.791137695312	1043.0810546875	774.9180297851562	1120.288818359375	1201.260986328125	550.61279296875	1027.985961914062	1147.507568359375	781.9617919921875	1033.353637695312	1395.512329101562	740.2887573242188	1095.221435546875	1319.895751953125	599.1453247070312	1085.1533203125	1253.864624023438	809.3877563476562	933.2916259765625	1355.731689453125	719.873779296875	913.6947631835938	1370.001953125	622.036376953125	838.4760131835938	1257.046630859375	640.7144775390625	815.6334838867188	1060.834228515625	655.9241333007812	871.5618896484375	1047.855102539062	720.240234375	861.0524291992188	832.3597412109375	604.6863403320312	793.153076171875	829.76123046875	652.2750854492188	803.1060180664062	955.5964965820312	656.5433959960938	848.04638671875	654.40478515625	636.5849609375	799.1564331054688	742.7017211914062	653.7689208984375	837.9073486328125	733.5051879882812	603.8015747070312	1200.271362304688	1383.918823242188	743.69775390625	1255.713745117188	1323.130126953125	776.769287109375	1328.78369140625	1066.744384765625	773.9133911132812	1236.554809570312	1047.470581054688	765.9004516601562	1366.331420898438	862.7267456054688	629.1156005859375	1412.277587890625	855.4484252929688	687.17724609375	1359.427856445312	1006.171691894531	750.0541381835938	1389.592529296875	694.0496215820312	620.5747680664062	1408.017822265625	764.4811401367188	610.9808349609375	1429.976196289062	769.697998046875	677.7197265625	1130.754638671875	1594.00439453125	702.5385131835938	1010.109313964844	1572.443481445312	545.7343139648438	1129.447387695312	1591.221069335938	568.5872192382812	973.3309326171875	1568.059692382812	689.3372802734375	905.1836547851562	936.459228515625	616.1633911132812	1233.391845703125	961.3057250976562	765.298583984375	1240.66650390625	967.514892578125	620.8612670898438	994.06689453125	947.1725463867188	532.158935546875	1058.35595703125	486.515625	443.6778259277344	1014.749633789062	609.0355224609375	482.8364562988281	982.3305053710938	116.7271270751953	694.0804443359375	1010.325561523438	289.2083129882812	564.9000854492188	1113.6669921875	42.03017425537109	542.2051391601562	1111.114379882812	58.9776496887207	625.5701293945312	1013.364501953125	65.04019927978516	584.1124877929688	1019.447692871094	129.8111724853516	748.4949340820312	1252.6416015625	468.8603820800781	722.171142578125	1278.529541015625	734.2049560546875	691.9718017578125	1204.587524414062	47.66292953491211	788.5740356445312	1245.598266601562	341.3453063964844	714.8221435546875	1227.906494140625	30.74048042297363	599.8075561523438	1167.693115234375	37.13334655761719	653.7717895507812	1247.804565429688	34.39202499389648	717.0957641601562	1124.877807617188	35.23630905151367	830.04833984375	
